PathFileType	4	(X/Y/Z)	/Users/itak/Documents/Research/Walk-IL/dataset/trc/00567_00009.trc
DataRate	CameraRate	NumFrames	NumMarkers	Units	OrigDataRate	OrigDataStartFrame	OrigNumFrames
100.000000	100.000000	4	53	mm	100.000000	0	447
Frame#	Time	RPSI			LPSI			L3			STRN			T10			C7			CLAV			RBAK			LBAK			LSHO			LUPA			LAEL			LAOL			LWTS			LWPS			LFRA			LHPS			LHTS			RSHO			RUPA			RAEL			RAOL			RWTS			RWPS			RFRA			RIFD			RHTS			RHPS			RBHD			LFHD			RFHD			LBHD			LHIP			RHIP			RASI			LASI			LKNE			LTHI			LANK			LTIP			LTOE			LMT1			LMT5			LHEE			RKNE			RTHI			RANK			RTIP			RTOE			RMT1			RMT5			RHEE			LIFD			
		X1	Y1	Z1	X2	Y2	Z2	X3	Y3	Z3	X4	Y4	Z4	X5	Y5	Z5	X6	Y6	Z6	X7	Y7	Z7	X8	Y8	Z8	X9	Y9	Z9	X10	Y10	Z10	X11	Y11	Z11	X12	Y12	Z12	X13	Y13	Z13	X14	Y14	Z14	X15	Y15	Z15	X16	Y16	Z16	X17	Y17	Z17	X18	Y18	Z18	X19	Y19	Z19	X20	Y20	Z20	X21	Y21	Z21	X22	Y22	Z22	X23	Y23	Z23	X24	Y24	Z24	X25	Y25	Z25	X26	Y26	Z26	X27	Y27	Z27	X28	Y28	Z28	X29	Y29	Z29	X30	Y30	Z30	X31	Y31	Z31	X32	Y32	Z32	X33	Y33	Z33	X34	Y34	Z34	X35	Y35	Z35	X36	Y36	Z36	X37	Y37	Z37	X38	Y38	Z38	X39	Y39	Z39	X40	Y40	Z40	X41	Y41	Z41	X42	Y42	Z42	X43	Y43	Z43	X44	Y44	Z44	X45	Y45	Z45	X46	Y46	Z46	X47	Y47	Z47	X48	Y48	Z48	X49	Y49	Z49	X50	Y50	Z50	X51	Y51	Z51	X52	Y52	Z52	X53	Y53	Z53	

1	0	-1171.744995117188	1014.824401855469	-257.3580932617188	-1137.15576171875	1018.368347167969	-386.7073669433594	-1145.315551757812	1106.281982421875	-324.2774963378906	-923.1185302734375	1286.956665039062	-277.2966613769531	-1155.541870117188	1231.972045898438	-329.614013671875	-1105.493041992188	1505.523071289062	-306.8372802734375	-937.61474609375	1398.12890625	-280.86865234375	-1197.811279296875	1382.276733398438	-238.8654327392578	-1121.202514648438	1453.445922851562	-404.1091003417969	-1007.507568359375	1472.790771484375	-465.5125427246094	-1003.895080566406	1344.452270507812	-542.56103515625	-979.1935424804688	1123.32177734375	-560.6492919921875	-1073.796630859375	1114.641479492188	-526.6782836914062	-896.5228881835938	882.5200805664062	-495.7544555664062	-927.1976318359375	858.6875	-573.7788696289062	-955.22998046875	1037.527099609375	-562.8623046875	-920.3142700195312	798.906982421875	-563.8178100585938	-877.1422119140625	804.5476684570312	-511.727783203125	-1083.006958007812	1464.845581054688	-142.0109710693359	-1116.01806640625	1399.71044921875	-79.57297515869141	-1131.444946289062	1109.238525390625	-40.03978729248047	-1178.456298828125	1092.8369140625	-78.67796325683594	-993.4534301757812	887.0715942382812	-48.31953811645508	-1054.2822265625	867.1754150390625	4.95859956741333	-1123.997924804688	1053.175537109375	-30.95852661132812	-989.4320068359375	713.55712890625	-46.22479248046875	-971.0294799804688	794.9053955078125	-28.05706405639648	-1038.416870117188	792.488525390625	6.6785569190979	-1043.90673828125	1680.825439453125	-227.3668365478516	-853.669677734375	1702.4853515625	-308.05517578125	-913.7012939453125	1696.522705078125	-177.0030975341797	-968.455810546875	1685.861572265625	-374.6529541015625	-983.3600463867188	934.2544555664062	-481.3345642089844	-1087.9443359375	937.8269653320312	-108.7066802978516	-985.9302978515625	966.7626953125	-141.7139129638672	-919.0704956054688	956.5817260742188	-410.8138122558594	-997.5924682617188	489.1473083496094	-415.5545043945312	-976.75634765625	653.8281860351562	-452.2425842285156	-1107.902465820312	29.68624687194824	-431.6612243652344	-1074.53271484375	249.1503295898438	-437.1366271972656	-918.2138061523438	36.72452545166016	-322.2522277832031	-997.7295532226562	40.41011047363281	-306.1509704589844	-985.3392944335938	32.18867492675781	-414.1245422363281	-1188.523071289062	31.16582870483398	-395.1609497070312	-1078.800048828125	494.2556762695312	-152.1353302001953	-1060.136108398438	782.8184814453125	-101.8900375366211	-1183.65380859375	36.69139862060547	-192.7880706787109	-1088.029418945312	352.7773132324219	-165.6680908203125	-959.8045043945312	36.73995971679688	-172.4018096923828	-1012.086547851562	32.99465942382812	-229.5936279296875	-1061.080200195312	39.29132843017578	-137.5135498046875	-1222.922973632812	23.95700836181641	-256.7359313964844	-900.2140502929688	709.2378540039062	-493.4558410644531	
2	0.01	-1171.481811523438	1014.852844238281	-257.8690795898438	-1136.841430664062	1018.345031738281	-387.2178955078125	-1144.974975585938	1106.354248046875	-324.7741088867188	-922.654296875	1286.837036132812	-277.7528991699219	-1155.119995117188	1232.041259765625	-330.0945129394531	-1104.843017578125	1505.550415039062	-307.2747497558594	-937.0458984375	1398.0322265625	-281.3279113769531	-1197.265869140625	1382.383911132812	-239.3092193603516	-1120.603637695312	1453.491455078125	-404.544677734375	-1006.899108886719	1472.756225585938	-465.9588928222656	-1003.375915527344	1344.440795898438	-543.0140991210938	-978.7951049804688	1123.2890625	-561.1346435546875	-1073.412963867188	1114.66748046875	-527.1729125976562	-896.4386596679688	882.3348388671875	-496.3634643554688	-927.1653442382812	858.6034545898438	-574.4218139648438	-954.9540405273438	1037.454711914062	-563.39453125	-920.3279418945312	798.7963256835938	-564.4967041015625	-877.1481323242188	804.3379516601562	-512.3897705078125	-1082.392700195312	1464.845092773438	-142.4623413085938	-1115.44873046875	1399.737060546875	-80.02574157714844	-1131.14453125	1109.294067382812	-40.46804428100586	-1178.16259765625	1092.903564453125	-79.10350799560547	-993.2807006835938	887.0974731445312	-48.66603851318359	-1054.077392578125	867.2041015625	4.557417392730713	-1123.721801757812	1053.242919921875	-31.38651847839355	-989.2667236328125	713.5639038085938	-46.62124633789062	-970.8502807617188	794.9229736328125	-28.44692993164062	-1038.235595703125	792.5140991210938	6.27010440826416	-1042.998413085938	1680.81494140625	-227.7360076904297	-852.7522583007812	1702.216186523438	-308.4576110839844	-912.748291015625	1696.317016601562	-177.3958282470703	-967.564453125	1685.790405273438	-375.0313110351562	-983.008544921875	934.1636352539062	-481.8558044433594	-1087.691040039062	937.8385620117188	-109.2070693969727	-985.6769409179688	966.7482299804688	-142.2196350097656	-918.7926025390625	956.511962890625	-411.2932739257812	-997.4207763671875	489.1126403808594	-415.8007202148438	-976.487060546875	653.7361450195312	-452.5284118652344	-1107.91845703125	29.67401504516602	-431.6874084472656	-1074.391845703125	249.1078796386719	-437.251708984375	-918.244140625	36.73239898681641	-322.2318420410156	-997.7390747070312	40.41683959960938	-306.1534118652344	-985.3424682617188	32.18995666503906	-414.1237487792969	-1188.51904296875	31.15201759338379	-395.1872863769531	-1078.183471679688	494.2126159667969	-152.3367462158203	-1059.792114257812	782.8605346679688	-102.2435989379883	-1183.643920898438	36.72439193725586	-192.7879028320312	-1087.551147460938	352.7277526855469	-165.7740325927734	-959.7982177734375	36.73503494262695	-172.4080963134766	-1012.080505371094	32.98171234130859	-229.6111450195312	-1061.079467773438	39.29637145996094	-137.5163116455078	-1222.919921875	23.97772026062012	-256.7312316894531	-900.2909545898438	709.0487060546875	-494.1630859375	
3	0.02	-1171.144897460938	1014.888671875	-258.5244445800781	-1136.438354492188	1018.311279296875	-387.8717041015625	-1144.541259765625	1106.445678710938	-325.4111328125	-922.0596313476562	1286.68505859375	-278.3390197753906	-1154.581420898438	1232.127197265625	-330.7116088867188	-1104.012084960938	1505.582641601562	-307.8369140625	-936.3216552734375	1397.907104492188	-281.9155578613281	-1196.570678710938	1382.517944335938	-239.8825988769531	-1119.835327148438	1453.548095703125	-405.1058044433594	-1006.119201660156	1472.713134765625	-466.5311279296875	-1002.706359863281	1344.423706054688	-543.5928955078125	-978.2744140625	1123.24609375	-561.746826171875	-1072.911376953125	1114.697998046875	-527.8034057617188	-896.315185546875	882.0984497070312	-497.1192626953125	-927.096435546875	858.4956665039062	-575.22119140625	-954.584228515625	1037.358154296875	-564.0618286132812	-920.3189697265625	798.6551513671875	-565.3424072265625	-877.1288452148438	804.0831298828125	-513.2172241210938	-1081.609619140625	1464.841918945312	-143.0430297851562	-1114.724853515625	1399.768188476562	-80.60807037353516	-1130.770629882812	1109.364990234375	-41.01700210571289	-1177.794677734375	1092.990112304688	-79.65120697021484	-993.0618896484375	887.1342163085938	-49.10517883300781	-1053.821533203125	867.2398681640625	4.048451900482178	-1123.378173828125	1053.327514648438	-31.93635940551758	-989.05859375	713.5732421875	-47.11418533325195	-970.6290893554688	794.9465942382812	-28.93318367004395	-1038.00927734375	792.5514526367188	5.750298023223877	-1041.842163085938	1680.798095703125	-228.2087707519531	-851.5820922851562	1701.873413085938	-308.971435546875	-911.5367431640625	1696.053344726562	-177.8967895507812	-966.4291381835938	1685.697265625	-375.5145874023438	-982.5557861328125	934.0484008789062	-482.5288696289062	-1087.365966796875	937.8517456054688	-109.8494338989258	-985.349365234375	966.7305908203125	-142.8664245605469	-918.4339599609375	956.4254150390625	-411.9100952148438	-997.2063598632812	489.0596313476562	-416.1112365722656	-976.1513671875	653.617431640625	-452.9011840820312	-1107.939331054688	29.65338516235352	-431.7226867675781	-1074.202514648438	249.0533905029297	-437.4100952148438	-918.28515625	36.74382019042969	-322.2052917480469	-997.7537231445312	40.42491149902344	-306.1553955078125	-985.3458862304688	32.1915168762207	-414.1220092773438	-1188.516235351562	31.12992858886719	-395.2261047363281	-1077.388305664062	494.1598510742188	-152.5932006835938	-1059.34765625	782.9125366210938	-102.7001266479492	-1183.631958007812	36.76967620849609	-192.7861938476562	-1086.932495117188	352.660888671875	-165.9093780517578	-959.7913208007812	36.72981643676758	-172.4162445068359	-1012.073913574219	32.96257781982422	-229.6358642578125	-1061.077270507812	39.30299377441406	-137.5210571289062	-1222.9169921875	24.00439071655273	-256.7247314453125	-900.3609619140625	708.8197631835938	-495.0475463867188	
4	0.03	-1170.744995117188	1014.929382324219	-259.3037414550781	-1135.959350585938	1018.265747070312	-388.6481323242188	-1144.029052734375	1106.552124023438	-326.1691284179688	-921.3523559570312	1286.506103515625	-279.0379028320312	-1153.943237304688	1232.225952148438	-331.4470825195312	-1103.026611328125	1505.617431640625	-308.5074768066406	-935.4662475585938	1397.75634765625	-282.6127319335938	-1195.748168945312	1382.672241210938	-240.5703887939453	-1118.919921875	1453.613159179688	-405.7769165039062	-1005.190795898438	1472.663208007812	-467.2117309570312	-1001.904174804688	1344.400512695312	-544.2788696289062	-977.6419067382812	1123.192993164062	-562.4616088867188	-1072.302124023438	1114.730712890625	-528.5487670898438	-896.1484375	881.818603515625	-497.98583984375	-926.9783325195312	858.3663940429688	-576.138916015625	-954.122802734375	1037.23876953125	-564.8355712890625	-920.2755737304688	798.4872436523438	-566.3157348632812	-877.07763671875	803.7936401367188	-514.1702880859375	-1080.683349609375	1464.834594726562	-143.7363433837891	-1113.871459960938	1399.80126953125	-81.3033447265625	-1130.340454101562	1109.449096679688	-41.6700325012207	-1177.368286132812	1093.094482421875	-80.30577850341797	-992.8037109375	887.1815795898438	-49.62217330932617	-1053.526245117188	867.281005859375	3.450092554092407	-1122.982788085938	1053.425659179688	-32.59175491333008	-988.8163452148438	713.585205078125	-47.67992401123047	-970.3781127929688	794.9755859375	-29.49223518371582	-1037.748901367188	792.6015014648438	5.138581275939941	-1040.476928710938	1680.773559570312	-228.7700042724609	-850.19775390625	1701.468505859375	-309.5798034667969	-910.1089477539062	1695.739868164062	-178.4893798828125	-965.088134765625	1685.583618164062	-376.0869750976562	-982.015380859375	933.9124755859375	-483.3357238769531	-1086.978393554688	937.8649291992188	-110.6141357421875	-984.9551391601562	966.71044921875	-143.6328735351562	-918.00634765625	956.3251342773438	-412.6468811035156	-996.9566040039062	488.9867248535156	-416.4752502441406	-975.7640380859375	653.4754028320312	-453.3529357910156	-1107.963745117188	29.6214485168457	-431.7670593261719	-1073.96728515625	248.9873809814453	-437.6122741699219	-918.336669921875	36.75905609130859	-322.1732788085938	-997.7741088867188	40.4335823059082	-306.1561889648438	-985.34912109375	32.19327545166016	-414.1190795898438	-1188.516235351562	31.09796524047852	-395.2791137695312	-1076.43505859375	494.1001892089844	-152.8945922851562	-1058.814453125	782.9713134765625	-103.2480621337891	-1183.619018554688	36.82665634155273	-192.7823333740234	-1086.187377929688	352.5758972167969	-166.0701904296875	-959.7847900390625	36.72525787353516	-172.4261322021484	-1012.067993164062	32.93650054931641	-229.6680450439453	-1061.073120117188	39.3110466003418	-137.5286865234375	-1222.914916992188	24.0354061126709	-256.7166137695312	-900.4138793945312	708.5604858398438	-496.0672607421875	
